<svg xmlns="http://www.w3.org/2000/svg" version="1.1" xmlns:xlink="http://www.w3.org/1999/xlink" xmlns:svgjs="http://svgjs.dev/svgjs" width="128" height="128" viewBox="0 0 128 128"><g transform="matrix(0.8046875,0,0,0.8046875,12.760752631578946,13.285017013093963)"><svg viewBox="0 0 95 94" data-background-color="#ffffff" preserveAspectRatio="xMidYMid meet" height="126" width="128" xmlns="http://www.w3.org/2000/svg" xmlns:xlink="http://www.w3.org/1999/xlink"><g id="tight-bounds" transform="matrix(1,0,0,1,-0.24049999999999727,0.018236654218938497)"><svg viewBox="0 0 95.481 93.96352669156211" height="93.96352669156211" width="95.481"><g><svg viewBox="0 0 95.481 93.96352669156211" height="93.96352669156211" width="95.481"><g><svg viewBox="0 0 95.481 93.96352669156211" height="93.96352669156211" width="95.481"><g id="textblocktransform"><svg viewBox="0 0 95.481 93.96352669156211" height="93.96352669156211" width="95.481" id="textblock"><g><svg viewBox="0 0 95.481 93.96352669156211" height="93.96352669156211" width="95.481"><g><svg viewBox="0 0 95.481 93.96352669156211" height="93.96352669156211" width="95.481"><g><svg xmlns="http://www.w3.org/2000/svg" xml:space="preserve" viewBox="4.935202354706927 5.695449555959597 89.97753934509005 88.54753217806108" x="0" y="0" height="93.96352669156211" width="95.481" class="icon-icon-0" data-fill-palette-color="accent" id="icon-0"><path d="M27.5 64.3c-1.9-2.9-2.9-6.2-3.6-9.5-0.2-1.2-0.5-2.3-0.6-3.5s-0.7-1.8-1.9-2.1c-1.7-0.5-3.3-1.2-5-1.7-4.4-1.4-7.2-4.8-9-8.7C5.6 35 4.5 31 5.1 26.5c0.6-4.7 2.7-8.3 6-11.3 5.2-4.7 11.4-6.4 18.2-5 5.6 1.1 9.9 4.4 12.9 9.2 0.9 1.4 1.8 2 3.4 1.9 1.7-0.1 3.3 0 5 0.1 3.1 0.1 6 1 8.4 3 3.2 2.6 5.9 5.7 7.7 9.3 1.7 3.3 3.9 6.2 6.3 8.9 0.6 0.6 1.1 0.8 1.9 0.6 0.5-0.1 1-0.2 1.4-0.4 6.3-3 11.5-7.3 14-14 0.8-2.2 1.3-4.6 0.6-7-0.2-0.7-0.3-1.4-0.5-2.1-0.6-3.6-2.6-6.2-5.6-7.9-4-2.3-8.5-2.9-13-1.8-2 0.5-3.8 1.8-5.7 2.8-0.7-1.1-0.7-2 0.4-2.7C69.1 8.4 71.3 7 73.7 6c1.5-0.5 3.3-0.3 5 0 5 0.9 9.3 3.3 12.4 7.5 1.2 1.6 2.1 3.6 2.7 5.5 0.7 2.2 1.2 4.5 1.1 6.8-0.1 2.5-0.2 5.1-2 7.2-0.2 0.2-0.4 0.5-0.5 0.8-1.3 3.5-4.1 5.8-6.6 8.4-0.7 0.7-1.7 1.1-2.6 1.6-1.9 1-3.7 2-5.7 3.1 0.3 0.7 0.4 1.1 0.7 1.5 3.2 4.5 6.5 9.1 9.7 13.6 1.5 2.1 2.8 4.2 4.1 6.4 1.7 3 2.2 6.3 1.5 9.7-0.3 1.4-0.6 2.8-0.8 4.2-0.5 3.3-2.5 5.4-5.1 7.2-3.2 2.2-6.7 3.3-10.5 3.7l-7.8 0.9c-3.4 0.4-6.7 0-9.7-1.7-1.2-0.7-2.3-0.7-3.7-0.3-2.8 0.7-5.5 1.6-8.4 1.9-2.7 0.3-5.6-0.1-8.3-0.1-5.5-0.1-10.5-1.8-15.4-4-5.5-2.4-8.3-7.1-9.1-12.9-0.3-2.1-0.2-4.3-0.1-6.5 0.1-2.4 1.4-4.2 3.7-5.1 2-0.8 4-1.1 6.1-0.9 0.9 0.1 1.9 0.2 2.8 0.3 0.1-0.2 0.2-0.4 0.3-0.5m37.7 22.9c1.2 0.2 1.9 0.5 2.6 0.4 2.1-0.1 4.1-0.4 6.2-0.6 3.8-0.3 7.3-1.6 10.4-3.8 1.3-0.9 2.3-2 2.8-3.5 0.4-1.2 0.7-2.5 1.1-3.7 1.5-4.5 0.1-8.3-2.8-11.7-4.2-4.9-8.5-9.7-12.7-14.6-1.1-1.3-2.3-2-4.1-2.1-1.6-0.1-3.3-0.4-4.9-1-2-0.7-4-1.6-6-2.4-2.6-1-4.9-2.4-6.6-4.6q-0.6-0.9-1.5-1.5c-2.7-2.1-4.7-4.8-6-8-0.5-1.1-1.1-1.6-2.4-1.3-0.9 0.3-1.9 0.3-2.8 0.6-0.7 0.3-1.5 0.7-1.9 1.3-1.8 2.9-3.5 5.9-5.1 8.9-0.7 1.3-1.1 2.8-0.7 4.1 2.6 0.4 5 0.5 7.2 1.1 5.3 1.4 10.1 3.9 14.7 6.9 7 4.6 12.2 10.8 15.2 18.6 2.3 5.8 2.5 11.5-2.7 16.9M35.1 48.3c0 0.1-0.1 0.2-0.1 0.3-0.6 0-1.3 0.1-1.9 0.1-0.2 0-0.5 0.1-0.7 0.1-1.5 0.4-2 0.9-1.5 2.4 0.6 2 1 4.1 2.1 5.8 2 3.2 3.8 6.5 5 10 0.4 1.2 1.1 2 2.1 2.8 2.9 2.1 5.8 4.2 8.4 6.6 2.4 2.2 4.5 4.7 6.7 7.1 1.7 1.8 2.2 2 4.3 0.8 2.3-1.3 4.2-3.2 5.5-5.5 0.8-1.5 1.4-3 1-4.8-1.2-5.1-3.9-9.5-7.7-13-5.1-4.7-11.4-7.9-17.6-11-1.7-0.9-3.7-1.2-5.6-1.7m4.1-26.8c-0.4-2.3-2.3-3.4-3.8-4.7-3.7-3.3-7.9-5.1-12.9-4.4-4.5 0.7-8.2 2.9-11.1 6.5-0.6 0.7-1.2 1.5-1.5 2.4-1.5 4.6-1 9.1 0.8 13.5 2 4.7 5.9 7.1 10.3 9 0.6 0.3 1.3 0.2 1.9 0.2 0.2-0.5 0.4-0.7 0.4-0.9 0.8-4.9 3.6-9 5.3-13.5 0.2-0.6 0.6-1.1 1-1.6 2.5-2.7 5.2-5.1 8.9-6.1 0.3 0 0.5-0.2 0.7-0.4m0.4 52.4c-0.4 1.5-0.8 2.7-1.2 3.9-0.6 2.1-1.9 3.9-3.4 5.4-1.2 1.1-2.8 1.4-3.4 0.6-0.5-0.7-0.1-1.6 1.3-2.7 1.7-1.4 2.1-2.7 1.3-4.8-0.3-0.7-0.8-1.4-1-2.2-0.8-2.9-2.9-3.9-5.6-4.4-4-0.6-7.8 1.2-9.5 4.9-0.4 0.8-0.5 2.1-0.1 3 1.6 3.5 3.9 6.5 7.6 7.9 7.3 2.9 14.8 4.2 22.7 2.2 1.5-0.4 3-0.8 4.8-1.4-3.6-5.4-8.4-8.9-13.5-12.4m7.5-45.2c0.4 2.2 2.5 5.6 4.3 7.6 4.1 4.6 9.7 6.3 15.1 8.3 0.3 0.1 0.8-0.2 1.5-0.3-2.1-5.2-4.9-9.6-9.5-12.8-3.4-2.5-7.2-3.4-11.4-2.8" fill="#ffccea" data-fill-palette-color="accent"></path></svg></g></svg></g></svg></g></svg></g></svg></g></svg></g><defs></defs></svg><rect width="95.481" height="93.96352669156211" fill="none" stroke="none" visibility="hidden"></rect></g></svg></g></svg>