<svg xmlns="http://www.w3.org/2000/svg" version="1.1" xmlns:xlink="http://www.w3.org/1999/xlink" xmlns:svgjs="http://svgjs.dev/svgjs" width="2000" height="328" viewBox="0 0 2000 328"><g transform="matrix(1,0,0,1,-1.2121212121213603,0.04810109356350267)"><svg viewBox="0 0 396 65" data-background-color="#ffffff" preserveAspectRatio="xMidYMid meet" height="328" width="2000" xmlns="http://www.w3.org/2000/svg" xmlns:xlink="http://www.w3.org/1999/xlink"><g id="tight-bounds" transform="matrix(1,0,0,1,0.24000000000003752,-0.00953222890740335)"><svg viewBox="0 0 395.5199999999999 65.01906445781479" height="65.01906445781479" width="395.5199999999999"><g><svg viewBox="0 0 494.6928953860531 81.3219792979592" height="65.01906445781479" width="395.5199999999999"><g transform="matrix(1,0,0,1,99.17289538605314,5.63498381807581)"><svg viewBox="0 0 395.52 70.05201166180758" height="70.05201166180758" width="395.52"><g id="textblocktransform"><svg viewBox="0 0 395.52 70.05201166180758" height="70.05201166180758" width="395.52" id="textblock"><g><svg viewBox="0 0 395.52 70.05201166180758" height="70.05201166180758" width="395.52"><g transform="matrix(1,0,0,1,0,0)"><svg width="395.52" viewBox="0.95 -36 205.78 36.45" height="70.05201166180758" data-palette-color="#c53683"><path d="M19.25 0L1.7 0Q0.95 0 0.95-0.55L0.95-0.55Q0.95-1 1.6-1.15L1.6-1.15 2.75-1.35Q3.8-1.55 4.13-1.9 4.45-2.25 4.45-3.3L4.45-3.3 4.45-32.7Q4.45-33.75 4.13-34.1 3.8-34.45 2.75-34.65L2.75-34.65 1.6-34.85Q0.95-35 0.95-35.45L0.95-35.45Q0.95-36 1.7-36L1.7-36 18.5-36Q19.65-36 19.75-34.85L19.75-34.85 20.15-26.55Q20.25-25.7 19.5-25.7L19.5-25.7Q18.9-25.7 18.8-26.35L18.8-26.35 18.5-28.2Q17.95-31.6 16.25-33.18 14.55-34.75 11.55-34.75L11.55-34.75Q9.55-34.75 8.78-34.18 8-33.6 8-32.15L8-32.15 8-20.1Q8-19.4 8.7-19.4L8.7-19.4 11.2-19.4Q13.4-19.4 13.9-21.75L13.9-21.75 14.4-24.25Q14.6-25 15.25-24.9L15.25-24.9Q15.8-24.8 15.8-24.05L15.8-24.05 15.8-12.8Q15.8-12.05 15.25-11.95L15.25-11.95Q14.6-11.85 14.4-12.6L14.4-12.6 13.9-15.05Q13.55-16.8 12.93-17.35 12.3-17.9 11.15-17.9L11.15-17.9 8.7-17.9Q8-17.9 8-17.2L8-17.2 8-4.65Q8-2.85 8.93-2.05 9.85-1.25 12.3-1.25L12.3-1.25Q14.8-1.25 16.57-2.53 18.35-3.8 19.05-7.3L19.05-7.3 19.65-10.25Q19.8-10.9 20.4-10.9L20.4-10.9Q21.1-10.9 21-10.05L21-10.05 20.5-1.15Q20.4 0 19.25 0L19.25 0ZM31.15 0.45L31.15 0.45Q30.7 0.45 30.5-0.1L30.5-0.1 23.85-22.15Q23.5-23.35 23.17-23.7 22.85-24.05 22.15-24.2L22.15-24.2 21.4-24.35Q20.75-24.5 20.75-25L20.75-25Q20.75-25.5 21.45-25.5L21.45-25.5 29.7-25.5Q30.4-25.5 30.4-25L30.4-25Q30.4-24.45 29.75-24.35L29.75-24.35 28.95-24.25Q27.75-24.1 27.45-23.68 27.15-23.25 27.45-22.15L27.45-22.15 31.6-7.7Q31.75-7.15 32.1-7.15 32.45-7.15 32.6-7.7L32.6-7.7 36.65-21.25Q37.05-22.6 36.87-23.28 36.7-23.95 35.45-24.15L35.45-24.15 34.4-24.35Q33.75-24.5 33.75-25L33.75-25Q33.75-25.5 34.45-25.5L34.45-25.5 40.8-25.5Q41.5-25.5 41.5-24.95L41.5-24.95Q41.5-24.45 40.9-24.25L40.9-24.25 40.45-24.1Q39.7-23.85 39.17-23.2 38.65-22.55 38.15-20.95L38.15-20.95 31.8-0.1Q31.6 0.45 31.15 0.45ZM50.1 0.45L50.1 0.45Q47.7 0.45 45.8-1.15 43.9-2.75 42.77-5.68 41.65-8.6 41.65-12.45L41.65-12.45Q41.65-16.4 42.8-19.4 43.95-22.4 45.95-24.1 47.95-25.8 50.4-25.8L50.4-25.8Q53.35-25.8 55.17-23.38 57-20.95 57-15.5L57-15.5Q57-13.85 55.75-13.85L55.75-13.85 46.25-13.85Q45.25-13.85 45.25-12.7L45.25-12.7Q45.25-7.4 46.8-4.75 48.35-2.1 50.75-2.1L50.75-2.1Q52.65-2.1 53.85-3.45 55.05-4.8 55.8-8L55.8-8Q55.95-8.55 56.45-8.55L56.45-8.55Q57.05-8.55 56.9-7.55L56.9-7.55Q56.1-3.1 54.35-1.33 52.6 0.45 50.1 0.45ZM46.1-15.1L46.1-15.1 51.15-15.1Q53.55-15.1 53.55-17.6L53.55-17.6Q53.55-20.85 52.75-22.7 51.95-24.55 50.35-24.55L50.35-24.55Q48.4-24.55 47.07-22.3 45.75-20.05 45.35-15.9L45.35-15.9Q45.25-15.1 46.1-15.1ZM68.19 0L59.74 0Q58.99 0 58.99-0.55L58.99-0.55Q58.99-1 59.64-1.15L59.64-1.15 60.24-1.25Q61.29-1.45 61.62-1.88 61.94-2.3 61.94-3.35L61.94-3.35 61.94-20.15Q61.94-21.05 61.67-21.38 61.39-21.7 60.69-21.8L60.69-21.8 59.64-21.95Q58.99-22 58.99-22.5L58.99-22.5Q58.99-22.9 59.79-23.05L59.79-23.05Q61.34-23.3 62.17-23.85 62.99-24.4 63.89-25.2L63.89-25.2Q64.34-25.65 64.64-25.65L64.64-25.65Q65.09-25.65 65.09-25.05L65.09-25.05 65.09-22.8Q65.09-22.35 65.42-22.23 65.74-22.1 66.14-22.5L66.14-22.5Q68.14-24.4 69.67-25.1 71.19-25.8 72.89-25.8L72.89-25.8Q75.14-25.8 76.49-24.23 77.84-22.65 77.84-19.6L77.84-19.6 77.84-3.35Q77.84-2.3 78.17-1.88 78.49-1.45 79.54-1.3L79.54-1.3 80.64-1.15Q81.19-1.05 81.19-0.55L81.19-0.55Q81.19 0 80.59 0L80.59 0 72.19 0Q71.49 0 71.49-0.55L71.49-0.55Q71.49-1.05 72.04-1.15L72.04-1.15 72.74-1.25Q73.79-1.4 74.12-1.85 74.44-2.3 74.44-3.35L74.44-3.35 74.44-19.05Q74.44-21.5 73.54-22.5 72.64-23.5 70.99-23.5L70.99-23.5Q69.39-23.5 68.12-22.58 66.84-21.65 66.09-20.13 65.34-18.6 65.34-16.75L65.34-16.75 65.34-3.35Q65.34-2.3 65.67-1.85 65.99-1.4 67.04-1.3L67.04-1.3 68.39-1.15Q68.94-1.05 68.94-0.6L68.94-0.6Q68.94 0 68.19 0L68.19 0ZM89.09 0.45L89.09 0.45Q87.34 0.45 86.22-0.78 85.09-2 85.09-4.8L85.09-4.8 85.09-23.5Q85.09-24.1 84.49-24.1L84.49-24.1 83.04-24.1Q82.24-24.1 82.24-24.7L82.24-24.7Q82.24-25.1 82.69-25.4L82.69-25.4Q84.34-26.55 85.34-27.88 86.34-29.2 87.09-31.5L87.09-31.5Q87.44-32.55 87.94-32.55L87.94-32.55Q88.49-32.55 88.49-31.75L88.49-31.75 88.49-26.2Q88.49-25.5 89.19-25.5L89.19-25.5 92.44-25.5Q93.24-25.5 93.24-24.8L93.24-24.8Q93.24-24.1 92.44-24.1L92.44-24.1 89.19-24.1Q88.49-24.1 88.49-23.4L88.49-23.4 88.49-4.75Q88.49-3.65 88.84-3.03 89.19-2.4 90.14-2.4L90.14-2.4Q91.19-2.4 91.87-3.45 92.54-4.5 92.74-6.85L92.74-6.85Q92.84-7.55 93.39-7.55L93.39-7.55Q93.99-7.55 93.99-6.8L93.99-6.8Q93.84-2.95 92.42-1.25 90.99 0.45 89.09 0.45ZM110.44-0.5L110.44-0.5Q110.24-0.5 109.99-0.65 109.74-0.8 109.64-1.3L109.64-1.3 102.09-31.95Q102.04-32.3 101.79-32.27 101.54-32.25 101.54-31.9L101.54-31.9 100.54-4.3Q100.49-2.9 100.99-2.18 101.49-1.45 102.74-1.25L102.74-1.25 103.39-1.15Q104.04-1.1 104.04-0.55L104.04-0.55Q104.04 0 103.29 0L103.29 0 96.14 0Q95.39 0 95.39-0.55L95.39-0.55Q95.39-1.1 96.04-1.15L96.04-1.15 96.69-1.25Q97.99-1.45 98.46-2.18 98.94-2.9 98.99-4.3L98.99-4.3 99.99-32.7Q100.04-33.75 99.69-34.1 99.34-34.45 98.19-34.65L98.19-34.65 97.04-34.85Q96.39-35 96.39-35.45L96.39-35.45Q96.39-36 97.14-36L97.14-36 103.14-36Q104.69-36 105.04-34.5L105.04-34.5 111.09-9.55Q111.19-9.2 111.41-9.2 111.64-9.2 111.69-9.55L111.69-9.55 117.99-34.75Q118.29-36 119.59-36L119.59-36 125.49-36Q126.24-36 126.24-35.45L126.24-35.45Q126.24-35 125.59-34.85L125.59-34.85 124.44-34.65Q123.39-34.45 123.04-34.1 122.69-33.75 122.74-32.7L122.74-32.7 123.74-3.3Q123.79-2.25 124.09-1.9 124.39-1.55 125.44-1.35L125.44-1.35 126.59-1.15Q127.24-1 127.24-0.55L127.24-0.55Q127.24 0 126.49 0L126.49 0 117.44 0Q116.69 0 116.69-0.55L116.69-0.55Q116.69-1 117.34-1.15L117.34-1.15 118.49-1.35Q119.54-1.55 119.89-1.9 120.24-2.25 120.19-3.3L120.19-3.3 119.34-31.9Q119.34-32.25 119.11-32.27 118.89-32.3 118.79-32L118.79-32 111.19-1.3Q111.09-0.8 110.86-0.65 110.64-0.5 110.44-0.5ZM133.94 0.45L133.94 0.45Q131.84 0.45 130.49-0.88 129.14-2.2 129.14-4.4L129.14-4.4Q129.14-6.55 130.49-8.47 131.84-10.4 134.19-11.95 136.54-13.5 139.54-14.45L139.54-14.45Q140.19-14.65 140.19-15.3L140.19-15.3 140.19-19.85Q140.19-22.25 139.44-23.28 138.69-24.3 137.39-24.3L137.39-24.3Q136.14-24.3 135.11-23.18 134.09-22.05 133.64-19.4L133.64-19.4Q133.39-17.8 132.56-17.07 131.74-16.35 130.89-16.35L130.89-16.35Q129.49-16.35 129.49-17.75L129.49-17.75Q129.49-19.2 130.31-20.63 131.14-22.05 132.49-23.23 133.84-24.4 135.44-25.1 137.04-25.8 138.64-25.8L138.64-25.8Q143.59-25.8 143.59-20.05L143.59-20.05 143.59-4.75Q143.59-2.65 144.64-2.65L144.64-2.65Q145.29-2.65 145.84-3.53 146.39-4.4 146.39-6.5L146.39-6.5Q146.39-7.3 147.04-7.3L147.04-7.3Q147.64-7.3 147.64-6.45L147.64-6.45Q147.64-2.8 146.36-1.18 145.09 0.45 143.49 0.45L143.49 0.45Q142.29 0.45 141.59-0.53 140.89-1.5 140.64-2.85L140.64-2.85Q140.59-3.35 140.21-3.38 139.84-3.4 139.49-2.9L139.49-2.9Q138.29-1.25 137.04-0.4 135.79 0.45 133.94 0.45ZM135.29-1.85L135.29-1.85Q136.59-1.85 137.69-2.78 138.79-3.7 139.49-5.25 140.19-6.8 140.19-8.75L140.19-8.75 140.19-12.4Q140.19-13.35 139.14-12.95L139.14-12.95Q136.09-11.85 134.41-9.93 132.74-8 132.74-5.3L132.74-5.3Q132.74-1.85 135.29-1.85ZM156.68 0.45L156.68 0.45Q156.23 0.45 156.03-0.1L156.03-0.1 149.38-22.15Q149.03-23.35 148.71-23.7 148.38-24.05 147.68-24.2L147.68-24.2 146.93-24.35Q146.28-24.5 146.28-25L146.28-25Q146.28-25.5 146.98-25.5L146.98-25.5 155.23-25.5Q155.93-25.5 155.93-25L155.93-25Q155.93-24.45 155.28-24.35L155.28-24.35 154.48-24.25Q153.28-24.1 152.98-23.68 152.68-23.25 152.98-22.15L152.98-22.15 157.13-7.7Q157.28-7.15 157.63-7.15 157.98-7.15 158.13-7.7L158.13-7.7 162.18-21.25Q162.58-22.6 162.41-23.28 162.23-23.95 160.98-24.15L160.98-24.15 159.93-24.35Q159.28-24.5 159.28-25L159.28-25Q159.28-25.5 159.98-25.5L159.98-25.5 166.33-25.5Q167.03-25.5 167.03-24.95L167.03-24.95Q167.03-24.45 166.43-24.25L166.43-24.25 165.98-24.1Q165.23-23.85 164.71-23.2 164.18-22.55 163.68-20.95L163.68-20.95 157.33-0.1Q157.13 0.45 156.68 0.45ZM175.63 0.45L175.63 0.45Q173.23 0.45 171.33-1.15 169.43-2.75 168.31-5.68 167.18-8.6 167.18-12.45L167.18-12.45Q167.18-16.4 168.33-19.4 169.48-22.4 171.48-24.1 173.48-25.8 175.93-25.8L175.93-25.8Q178.88-25.8 180.71-23.38 182.53-20.95 182.53-15.5L182.53-15.5Q182.53-13.85 181.28-13.85L181.28-13.85 171.78-13.85Q170.78-13.85 170.78-12.7L170.78-12.7Q170.78-7.4 172.33-4.75 173.88-2.1 176.28-2.1L176.28-2.1Q178.18-2.1 179.38-3.45 180.58-4.8 181.33-8L181.33-8Q181.48-8.55 181.98-8.55L181.98-8.55Q182.58-8.55 182.43-7.55L182.43-7.55Q181.63-3.1 179.88-1.33 178.13 0.45 175.63 0.45ZM171.63-15.1L171.63-15.1 176.68-15.1Q179.08-15.1 179.08-17.6L179.08-17.6Q179.08-20.85 178.28-22.7 177.48-24.55 175.88-24.55L175.88-24.55Q173.93-24.55 172.61-22.3 171.28-20.05 170.88-15.9L170.88-15.9Q170.78-15.1 171.63-15.1ZM193.73 0L185.28 0Q184.53 0 184.53-0.55L184.53-0.55Q184.53-1 185.18-1.15L185.18-1.15 185.78-1.25Q186.83-1.45 187.15-1.88 187.48-2.3 187.48-3.35L187.48-3.35 187.48-20.15Q187.48-21.05 187.2-21.38 186.93-21.7 186.23-21.8L186.23-21.8 185.18-21.95Q184.53-22 184.53-22.5L184.53-22.5Q184.53-22.9 185.33-23.05L185.33-23.05Q186.88-23.3 187.7-23.85 188.53-24.4 189.43-25.2L189.43-25.2Q189.88-25.65 190.18-25.65L190.18-25.65Q190.63-25.65 190.63-25.05L190.63-25.05 190.63-22.8Q190.63-22.35 190.95-22.23 191.28-22.1 191.68-22.5L191.68-22.5Q193.68-24.4 195.2-25.1 196.73-25.8 198.43-25.8L198.43-25.8Q200.68-25.8 202.03-24.23 203.38-22.65 203.38-19.6L203.38-19.6 203.38-3.35Q203.38-2.3 203.7-1.88 204.03-1.45 205.08-1.3L205.08-1.3 206.18-1.15Q206.73-1.05 206.73-0.55L206.73-0.55Q206.73 0 206.13 0L206.13 0 197.73 0Q197.03 0 197.03-0.55L197.03-0.55Q197.03-1.05 197.58-1.15L197.58-1.15 198.28-1.25Q199.33-1.4 199.65-1.85 199.98-2.3 199.98-3.35L199.98-3.35 199.98-19.05Q199.98-21.5 199.08-22.5 198.18-23.5 196.53-23.5L196.53-23.5Q194.93-23.5 193.65-22.58 192.38-21.65 191.63-20.13 190.88-18.6 190.88-16.75L190.88-16.75 190.88-3.35Q190.88-2.3 191.2-1.85 191.53-1.4 192.58-1.3L192.58-1.3 193.93-1.15Q194.48-1.05 194.48-0.6L194.48-0.6Q194.48 0 193.73 0L193.73 0Z" opacity="1" transform="matrix(1,0,0,1,0,0)" fill="#c53683" class="wordmark-text-0" data-fill-palette-color="primary" id="text-0"></path></svg></g></svg></g></svg></g></svg></g><g><svg viewBox="0 0 82.63529668098025 81.3219792979592" height="81.3219792979592" width="82.63529668098025"><g><svg xmlns="http://www.w3.org/2000/svg" xml:space="preserve" viewBox="4.935202354706927 5.695449555959597 89.97753934509005 88.54753217806108" x="0" y="0" height="81.3219792979592" width="82.63529668098025" class="icon-icon-0" data-fill-palette-color="accent" id="icon-0"><path d="M27.5 64.3c-1.9-2.9-2.9-6.2-3.6-9.5-0.2-1.2-0.5-2.3-0.6-3.5s-0.7-1.8-1.9-2.1c-1.7-0.5-3.3-1.2-5-1.7-4.4-1.4-7.2-4.8-9-8.7C5.6 35 4.5 31 5.1 26.5c0.6-4.7 2.7-8.3 6-11.3 5.2-4.7 11.4-6.4 18.2-5 5.6 1.1 9.9 4.4 12.9 9.2 0.9 1.4 1.8 2 3.4 1.9 1.7-0.1 3.3 0 5 0.1 3.1 0.1 6 1 8.4 3 3.2 2.6 5.9 5.7 7.7 9.3 1.7 3.3 3.9 6.2 6.3 8.9 0.6 0.6 1.1 0.8 1.9 0.6 0.5-0.1 1-0.2 1.4-0.4 6.3-3 11.5-7.3 14-14 0.8-2.2 1.3-4.6 0.6-7-0.2-0.7-0.3-1.4-0.5-2.1-0.6-3.6-2.6-6.2-5.6-7.9-4-2.3-8.5-2.9-13-1.8-2 0.5-3.8 1.8-5.7 2.8-0.7-1.1-0.7-2 0.4-2.7C69.1 8.4 71.3 7 73.7 6c1.5-0.5 3.3-0.3 5 0 5 0.9 9.3 3.3 12.4 7.5 1.2 1.6 2.1 3.6 2.7 5.5 0.7 2.2 1.2 4.5 1.1 6.8-0.1 2.5-0.2 5.1-2 7.2-0.2 0.2-0.4 0.5-0.5 0.8-1.3 3.5-4.1 5.8-6.6 8.4-0.7 0.7-1.7 1.1-2.6 1.6-1.9 1-3.7 2-5.7 3.1 0.3 0.7 0.4 1.1 0.7 1.5 3.2 4.5 6.5 9.1 9.7 13.6 1.5 2.1 2.8 4.2 4.1 6.4 1.7 3 2.2 6.3 1.5 9.7-0.3 1.4-0.6 2.8-0.8 4.2-0.5 3.3-2.5 5.4-5.1 7.2-3.2 2.2-6.7 3.3-10.5 3.7l-7.8 0.9c-3.4 0.4-6.7 0-9.7-1.7-1.2-0.7-2.3-0.7-3.7-0.3-2.8 0.7-5.5 1.6-8.4 1.9-2.7 0.3-5.6-0.1-8.3-0.1-5.5-0.1-10.5-1.8-15.4-4-5.5-2.4-8.3-7.1-9.1-12.9-0.3-2.1-0.2-4.3-0.1-6.5 0.1-2.4 1.4-4.2 3.7-5.1 2-0.8 4-1.1 6.1-0.9 0.9 0.1 1.9 0.2 2.8 0.3 0.1-0.2 0.2-0.4 0.3-0.5m37.7 22.9c1.2 0.2 1.9 0.5 2.6 0.4 2.1-0.1 4.1-0.4 6.2-0.6 3.8-0.3 7.3-1.6 10.4-3.8 1.3-0.9 2.3-2 2.8-3.5 0.4-1.2 0.7-2.5 1.1-3.7 1.5-4.5 0.1-8.3-2.8-11.7-4.2-4.9-8.5-9.7-12.7-14.6-1.1-1.3-2.3-2-4.1-2.1-1.6-0.1-3.3-0.4-4.9-1-2-0.7-4-1.6-6-2.4-2.6-1-4.9-2.4-6.6-4.6q-0.6-0.9-1.5-1.5c-2.7-2.1-4.7-4.8-6-8-0.5-1.1-1.1-1.6-2.4-1.3-0.9 0.3-1.9 0.3-2.8 0.6-0.7 0.3-1.5 0.7-1.9 1.3-1.8 2.9-3.5 5.9-5.1 8.9-0.7 1.3-1.1 2.8-0.7 4.1 2.6 0.4 5 0.5 7.2 1.1 5.3 1.4 10.1 3.9 14.7 6.9 7 4.6 12.2 10.8 15.2 18.6 2.3 5.8 2.5 11.5-2.7 16.9M35.1 48.3c0 0.1-0.1 0.2-0.1 0.3-0.6 0-1.3 0.1-1.9 0.1-0.2 0-0.5 0.1-0.7 0.1-1.5 0.4-2 0.9-1.5 2.4 0.6 2 1 4.1 2.1 5.8 2 3.2 3.8 6.5 5 10 0.4 1.2 1.1 2 2.1 2.8 2.9 2.1 5.8 4.2 8.4 6.6 2.4 2.2 4.5 4.7 6.7 7.1 1.7 1.8 2.2 2 4.3 0.8 2.3-1.3 4.2-3.2 5.5-5.5 0.8-1.5 1.4-3 1-4.8-1.2-5.1-3.9-9.5-7.7-13-5.1-4.7-11.4-7.9-17.6-11-1.7-0.9-3.7-1.2-5.6-1.7m4.1-26.8c-0.4-2.3-2.3-3.4-3.8-4.7-3.7-3.3-7.9-5.1-12.9-4.4-4.5 0.7-8.2 2.9-11.1 6.5-0.6 0.7-1.2 1.5-1.5 2.4-1.5 4.6-1 9.1 0.8 13.5 2 4.7 5.9 7.1 10.3 9 0.6 0.3 1.3 0.2 1.9 0.2 0.2-0.5 0.4-0.7 0.4-0.9 0.8-4.9 3.6-9 5.3-13.5 0.2-0.6 0.6-1.1 1-1.6 2.5-2.7 5.2-5.1 8.9-6.1 0.3 0 0.5-0.2 0.7-0.4m0.4 52.4c-0.4 1.5-0.8 2.7-1.2 3.9-0.6 2.1-1.9 3.9-3.4 5.4-1.2 1.1-2.8 1.4-3.4 0.6-0.5-0.7-0.1-1.6 1.3-2.7 1.7-1.4 2.1-2.7 1.3-4.8-0.3-0.7-0.8-1.4-1-2.2-0.8-2.9-2.9-3.9-5.6-4.4-4-0.6-7.8 1.2-9.5 4.9-0.4 0.8-0.5 2.1-0.1 3 1.6 3.5 3.9 6.5 7.6 7.9 7.3 2.9 14.8 4.2 22.7 2.2 1.5-0.4 3-0.8 4.8-1.4-3.6-5.4-8.4-8.9-13.5-12.4m7.5-45.2c0.4 2.2 2.5 5.6 4.3 7.6 4.1 4.6 9.7 6.3 15.1 8.3 0.3 0.1 0.8-0.2 1.5-0.3-2.1-5.2-4.9-9.6-9.5-12.8-3.4-2.5-7.2-3.4-11.4-2.8" fill="#ffccea" data-fill-palette-color="accent"></path></svg></g></svg></g></svg></g><defs></defs></svg><rect width="395.5199999999999" height="65.01906445781479" fill="none" stroke="none" visibility="hidden"></rect></g></svg></g></svg>